<?xml version="1.0" encoding="UTF-8" standalone="no"?>
<!-- Created with Inkscape (http://www.inkscape.org/) -->

<svg
   width="297mm"
   height="129mm"
   viewBox="0 0 297 129"
   version="1.1"
   id="svg1"
   inkscape:version="1.3.2 (091e20e, 2023-11-25, custom)"
   sodipodi:docname="stats.svg"
   xmlns:inkscape="http://www.inkscape.org/namespaces/inkscape"
   xmlns:sodipodi="http://sodipodi.sourceforge.net/DTD/sodipodi-0.dtd"
   xmlns="http://www.w3.org/2000/svg"
   xmlns:svg="http://www.w3.org/2000/svg">
  <sodipodi:namedview
     id="namedview1"
     pagecolor="#505050"
     bordercolor="#eeeeee"
     borderopacity="1"
     inkscape:showpageshadow="0"
     inkscape:pageopacity="0"
     inkscape:pagecheckerboard="0"
     inkscape:deskcolor="#505050"
     inkscape:document-units="mm"
     inkscape:zoom="0.45344416"
     inkscape:cx="396.96177"
     inkscape:cy="208.40493"
     inkscape:window-width="1366"
     inkscape:window-height="705"
     inkscape:window-x="-8"
     inkscape:window-y="-8"
     inkscape:window-maximized="1"
     inkscape:current-layer="layer1" />
  <defs
     id="defs1">
    <filter
       style="color-interpolation-filters:sRGB;"
       inkscape:label="Drop Shadow"
       id="filter928"
       x="-0.076732799"
       y="-0.053289396"
       width="1.1534656"
       height="1.1620886">
      <feFlood
         result="flood"
         in="SourceGraphic"
         flood-opacity="0.501961"
         flood-color="rgb(255,255,255)"
         id="feFlood927" />
      <feGaussianBlur
         result="blur"
         in="SourceGraphic"
         stdDeviation="2.000000"
         id="feGaussianBlur927" />
      <feOffset
         result="offset"
         in="blur"
         dx="0.000000"
         dy="5.000000"
         id="feOffset927" />
      <feComposite
         result="comp1"
         operator="in"
         in="flood"
         in2="offset"
         id="feComposite927" />
      <feComposite
         result="comp2"
         operator="over"
         in="SourceGraphic"
         in2="comp1"
         id="feComposite928" />
    </filter>
    <filter
       style="color-interpolation-filters:sRGB;"
       inkscape:label="Drop Shadow"
       id="filter930"
       x="-0.062328086"
       y="-0.1122325"
       width="1.1246562"
       height="1.3413739">
      <feFlood
         result="flood"
         in="SourceGraphic"
         flood-opacity="0.501961"
         flood-color="rgb(255,255,255)"
         id="feFlood928" />
      <feGaussianBlur
         result="blur"
         in="SourceGraphic"
         stdDeviation="2.000000"
         id="feGaussianBlur928" />
      <feOffset
         result="offset"
         in="blur"
         dx="0.000000"
         dy="5.000000"
         id="feOffset928" />
      <feComposite
         result="comp1"
         operator="in"
         in="flood"
         in2="offset"
         id="feComposite929" />
      <feComposite
         result="comp2"
         operator="over"
         in="SourceGraphic"
         in2="comp1"
         id="feComposite930" />
    </filter>
    <filter
       style="color-interpolation-filters:sRGB;"
       inkscape:label="Drop Shadow"
       id="filter932"
       x="-0.11343195"
       y="-0.052245167"
       width="1.2268639"
       height="1.1589124">
      <feFlood
         result="flood"
         in="SourceGraphic"
         flood-opacity="0.501961"
         flood-color="rgb(255,255,255)"
         id="feFlood930" />
      <feGaussianBlur
         result="blur"
         in="SourceGraphic"
         stdDeviation="2.000000"
         id="feGaussianBlur930" />
      <feOffset
         result="offset"
         in="blur"
         dx="0.000000"
         dy="5.000000"
         id="feOffset930" />
      <feComposite
         result="comp1"
         operator="in"
         in="flood"
         in2="offset"
         id="feComposite931" />
      <feComposite
         result="comp2"
         operator="over"
         in="SourceGraphic"
         in2="comp1"
         id="feComposite932" />
    </filter>
    <filter
       style="color-interpolation-filters:sRGB;"
       inkscape:label="Drop Shadow"
       id="filter934"
       x="-0.068973064"
       y="-0.050557666"
       width="1.1379461"
       height="1.1537796">
      <feFlood
         result="flood"
         in="SourceGraphic"
         flood-opacity="0.501961"
         flood-color="rgb(255,255,255)"
         id="feFlood932" />
      <feGaussianBlur
         result="blur"
         in="SourceGraphic"
         stdDeviation="2.000000"
         id="feGaussianBlur932" />
      <feOffset
         result="offset"
         in="blur"
         dx="0.000000"
         dy="5.000000"
         id="feOffset932" />
      <feComposite
         result="comp1"
         operator="in"
         in="flood"
         in2="offset"
         id="feComposite933" />
      <feComposite
         result="comp2"
         operator="over"
         in="SourceGraphic"
         in2="comp1"
         id="feComposite934" />
    </filter>
    <filter
       style="color-interpolation-filters:sRGB;"
       inkscape:label="Drop Shadow"
       id="filter936"
       x="-0.064939107"
       y="-0.2508182"
       width="1.1298782"
       height="1.7629054">
      <feFlood
         result="flood"
         in="SourceGraphic"
         flood-opacity="0.501961"
         flood-color="rgb(255,255,255)"
         id="feFlood934" />
      <feGaussianBlur
         result="blur"
         in="SourceGraphic"
         stdDeviation="2.000000"
         id="feGaussianBlur934" />
      <feOffset
         result="offset"
         in="blur"
         dx="0.000000"
         dy="5.000000"
         id="feOffset934" />
      <feComposite
         result="comp1"
         operator="in"
         in="flood"
         in2="offset"
         id="feComposite935" />
      <feComposite
         result="comp2"
         operator="over"
         in="SourceGraphic"
         in2="comp1"
         id="feComposite936" />
    </filter>
    <filter
       style="color-interpolation-filters:sRGB;"
       inkscape:label="Drop Shadow"
       id="filter938"
       x="-0.25864959"
       y="-0.053445467"
       width="1.5172992"
       height="1.1625633">
      <feFlood
         result="flood"
         in="SourceGraphic"
         flood-opacity="0.501961"
         flood-color="rgb(255,255,255)"
         id="feFlood936" />
      <feGaussianBlur
         result="blur"
         in="SourceGraphic"
         stdDeviation="2.000000"
         id="feGaussianBlur936" />
      <feOffset
         result="offset"
         in="blur"
         dx="0.000000"
         dy="5.000000"
         id="feOffset936" />
      <feComposite
         result="comp1"
         operator="in"
         in="flood"
         in2="offset"
         id="feComposite937" />
      <feComposite
         result="comp2"
         operator="over"
         in="SourceGraphic"
         in2="comp1"
         id="feComposite938" />
    </filter>
    <filter
       style="color-interpolation-filters:sRGB;"
       inkscape:label="Drop Shadow"
       id="filter940"
       x="-0.090772654"
       y="-0.041292081"
       width="1.1815453"
       height="1.1255967">
      <feFlood
         result="flood"
         in="SourceGraphic"
         flood-opacity="0.501961"
         flood-color="rgb(255,255,255)"
         id="feFlood938" />
      <feGaussianBlur
         result="blur"
         in="SourceGraphic"
         stdDeviation="2.000000"
         id="feGaussianBlur938" />
      <feOffset
         result="offset"
         in="blur"
         dx="0.000000"
         dy="5.000000"
         id="feOffset938" />
      <feComposite
         result="comp1"
         operator="in"
         in="flood"
         in2="offset"
         id="feComposite939" />
      <feComposite
         result="comp2"
         operator="over"
         in="SourceGraphic"
         in2="comp1"
         id="feComposite940" />
    </filter>
  </defs>
  <g
     inkscape:label="Layer 1"
     inkscape:groupmode="layer"
     id="layer1">
    <path
       style="fill:#000000;stroke-width:0.264583;filter:url(#filter940)"
       id="path9"
       d="m 51.243084,9.8882073 c -4.819671,0.5489737 -8.94081,3.2013637 -12.540236,6.3173537 -1.354759,1.172805 -2.59198,2.47488 -3.887971,3.712321 -1.307612,1.397283 -2.673499,2.742226 -3.922836,4.191852 -4.686567,5.437896 -9.795407,12.361089 -10.235566,19.81796 -0.109489,1.854894 0.285331,3.705276 0.427997,5.557915 0.713118,1.978125 1.181862,4.062288 2.139354,5.934381 1.792805,3.505298 3.869338,6.868205 6.076211,10.128724 1.977305,2.921344 6.608832,7.699512 9.025745,10.21397 2.837365,2.951876 5.721236,5.858777 8.562864,8.806552 -2.146562,-3.635819 7.578095,9.328305 5.560888,7.099568 -1.174374,-1.297522 -1.477854,-3.554421 -3.084303,-4.248714 -0.877337,-0.379177 0.105121,1.93543 -0.117563,2.864898 -0.70717,2.951683 -2.217499,4.454673 -3.983024,6.901253 -6.455979,6.842779 -14.461961,12.197119 -22.819119,16.459219 -1.419201,0.72379 -2.888813,1.34416 -4.333219,2.01623 -4.117333,1.65795 -8.6080184,3.25201 -13.0616493,1.94027 -0.6126007,-0.18043 -1.1729286,-0.50554 -1.7593926,-0.75832 0,0 4.3462864,9.11482 4.3462864,9.11482 v 0 c 0.5687531,0.0582 1.1345918,0.1821 1.7062595,0.17446 4.355297,-0.0582 8.429284,-2.62789 12.195225,-4.49152 1.36714,-0.83248 2.757103,-1.62858 4.101419,-2.49743 1.284739,-0.83035 8.006733,-5.49598 9.123121,-6.24283 0.223903,-0.14978 9.675199,-6.30462 9.981824,-6.51132 1.464059,-0.98695 2.89492,-2.02228 4.342379,-3.03342 2.083668,-1.83535 4.243554,-3.20291 5.2632,-5.926919 1.818989,-4.85947 -2.746158,-9.570212 -4.86583,-13.235188 C 48.930946,83.236065 48.150611,82.423217 47.399596,81.610002 46.479251,80.613433 45.4533,79.719847 44.480152,78.774772 40.14257,74.835417 35.7333,70.937861 31.894628,66.492123 c -1.534778,-1.777495 -2.91913,-3.679539 -4.369057,-5.526902 -0.298087,-0.379797 -0.685382,-0.71029 -0.874831,-1.154372 -0.74858,-1.754733 -1.278667,-3.594836 -1.918,-5.392254 -0.166911,-1.793187 -0.560044,-3.5796 -0.500731,-5.379561 0.252303,-7.656718 4.637716,-14.487384 9.768917,-19.85337 1.286531,-1.345398 2.73288,-2.528318 4.09932,-3.792476 1.401609,-0.998321 2.730071,-2.108258 4.20483,-2.994967 3.638394,-2.187612 8.211605,-3.844679 12.489026,-2.775958 0.47964,0.119838 0.917684,0.368128 1.376524,0.55219 z" />
    <path
       style="fill:#000000;stroke-width:0.264583;filter:url(#filter938)"
       id="path10"
       d="m 65.463824,40.266249 c 3.457352,6.380197 5.369205,13.438732 7.2082,20.41249 2.763109,11.100581 3.946477,22.492822 4.794249,33.873554 0.446564,6.753367 1.007785,13.518257 0.987867,20.290847 0.0089,2.2374 -0.280873,4.41609 -1.071946,6.50585 0,0 5.973059,8.72843 5.973059,8.72843 v 0 c 0.565867,-2.5502 0.799571,-5.13501 0.5915,-7.75033 -0.684721,-7.45892 -1.59683,-14.90013 -2.448515,-22.341449 C 80.045426,88.445892 78.447235,76.91788 76.32734,65.479299 c -0.318653,-1.693291 -0.649539,-3.384327 -0.955963,-5.079875 -0.239546,-1.325489 -0.4014,-2.665497 -0.68189,-3.982929 -0.516503,-2.425965 -1.422691,-4.752277 -2.02923,-7.153637 z" />
    <path
       style="fill:#000000;stroke-width:0.264583;filter:url(#filter936)"
       id="path11"
       d="m 37.081528,41.206018 c 5.831324,1.330333 11.586072,3.008032 17.333952,4.663718 5.208794,1.329412 10.376744,3.100935 15.740401,3.73907 2.88413,0.343135 3.469569,0.190815 6.317035,0.03552 2.05164,-0.345763 4.09407,-0.610783 6.081038,-1.268376 1.204656,-0.398685 2.348085,-0.963303 3.531473,-1.42127 4.147733,-1.605153 8.354597,-3.055337 12.552413,-4.522081 5.40627,-1.993823 2.77781,-1.015979 7.88624,-2.931213 0,0 -3.83742,-6.803459 -3.83742,-6.803459 v 0 c -4.72628,2.515354 -2.23637,1.335278 -7.49038,3.496353 -2.389936,0.796618 -6.213131,2.104715 -8.647729,2.782488 -4.62712,1.288153 -9.392629,2.063855 -14.120574,2.864035 -2.712484,0.233339 -3.231756,0.363717 -5.984475,0.248626 -5.108469,-0.213585 -10.151375,-1.300453 -15.065775,-2.647516 -4.264223,-1.385856 -8.42669,-2.853947 -12.466497,-4.819568 -1.50509,-0.732322 -3.672038,-1.88582 -5.103524,-2.910821 -0.428913,-0.307123 -0.799351,-0.688626 -1.199025,-1.032939 z" />
    <path
       style="fill:#000000;stroke-width:0.264583;filter:url(#filter934)"
       id="path12"
       d="m 88.785895,85.654921 c 0.568288,2.044491 0.773287,4.192048 1.524833,6.18879 0.850884,2.260674 1.567609,3.39095 2.733699,5.533247 1.575781,2.640122 7.235323,14.989662 13.297713,14.878592 2.93262,-0.0537 4.14473,-1.77021 6.26035,-3.51815 1.0739,-1.48469 2.26861,-2.88909 3.22169,-4.45408 2.37616,-3.90176 4.45182,-8.812209 6.11488,-13.015642 3.29637,-8.331657 2.45656,-6.867019 5.26731,-15.667622 0.80869,-2.532044 1.68248,-5.042831 2.52372,-7.564249 3.1398,-8.603266 6.23815,-17.410655 11.28743,-25.129011 0.5225,-0.798695 1.12902,-1.539158 1.69353,-2.308738 0.42882,0.29577 1.39354,-2.309254 2.34014,-1.944944 0.27976,0.107667 0.26518,1.134419 0.0844,0.895297 -1.80967,-2.393995 -2.74036,-5.534356 -5.04459,-7.457033 -1.03482,-0.86347 0.606,2.627551 0.84609,3.953751 0.33525,1.851837 0.5862,3.717949 0.8793,5.576924 2.05775,15.609954 4.03219,31.229536 6.68324,46.752319 0.99337,6.022777 2.34372,11.977488 3.4252,17.983668 0.1558,0.86524 1.00898,5.6447 1.00039,6.99714 -0.003,0.47682 -0.22714,0.92622 -0.3407,1.38933 -0.24331,-0.022 -0.49752,0.009 -0.72991,-0.0661 -0.41115,-0.13326 -0.78693,-0.35814 -1.17375,-0.55096 -2.9828,-1.48688 -2.71989,-1.35373 -5.89882,-3.45332 -1.35981,-0.89811 -2.65553,-1.89423 -4.04479,-2.74608 -1.61156,-0.98815 -3.29955,-1.84585 -4.94932,-2.76878 -7.42723,-4.18742 -15.52731,-6.877064 -23.50335,-9.774325 -4.01358,-1.457915 -5.78576,-2.190563 -9.63785,-3.718719 -2.697648,-1.333209 -5.813397,-2.076064 -8.227622,-3.963623 -0.4675,-0.365513 -1.558449,-1.780471 -1.232813,-1.284366 5.60061,8.532513 3.54557,9.888926 6.893245,5.430258 1.64381,-1.088091 3.14275,-2.435606 4.93142,-3.264273 4.774,-2.211734 11.64472,-3.537998 16.68436,-4.462645 9.22679,-1.692887 18.54349,-2.750085 27.8695,-3.688837 2.56791,-0.145304 5.13582,-0.290608 7.70372,-0.435909 0,0 -1.89114,-3.579376 -1.89114,-3.579376 v 0 c -2.33383,0.586817 -4.66766,1.173631 -7.00149,1.760448 -2.85664,0.521485 -5.70462,1.092874 -8.56992,1.564457 -14.66238,2.413204 -29.47538,4.104039 -44.343088,4.347514 -0.953021,0.437838 -3.014654,0.276331 -2.859063,1.313511 1.735436,11.568599 4.932217,11.277057 13.166721,12.877853 11.26705,2.407192 22.41559,5.795562 32.2556,11.954172 5.36399,3.69521 4.79924,3.15415 9.58486,6.99063 1.31967,1.05794 2.59686,2.16801 3.91099,3.23282 0.84133,0.68171 4.08574,3.76388 5.89123,3.57476 0.55055,-0.0577 0.64336,-0.90101 0.96504,-1.35152 -0.14359,-0.90119 -0.22603,-1.81428 -0.43078,-2.70358 -0.30346,-1.31806 -0.7353,-2.60327 -1.09145,-3.90808 -0.45341,-1.66116 -0.90135,-3.32386 -1.33718,-4.98971 -1.71479,-6.55425 -3.40483,-13.119649 -4.79093,-19.752819 -0.50046,-2.59107 -1.04027,-5.17485 -1.5014,-7.773209 -2.13765,-12.045035 -3.51961,-24.252309 -3.39988,-36.499877 0.0457,-1.407088 0.0599,-2.815553 0.13722,-4.221263 0.0493,-0.897628 0.58123,-1.853327 0.24244,-2.686029 -1.55436,-3.820392 -3.54818,-7.472632 -5.78536,-10.937671 -0.19879,-0.307893 -0.78598,0.106657 -1.0325,0.377844 -0.89847,0.988367 -0.47277,2.833097 -1.45102,3.735173 -1.45259,4.049966 -3.0014,8.071585 -4.3323,12.164025 -2.12366,6.530147 -3.84471,13.18174 -5.76618,19.77163 -2.37933,8.019182 -2.09681,7.732535 -5.19674,15.515122 -2.56309,6.434788 -5.41739,12.884223 -10.22125,18.013534 -1.12569,1.201944 -2.50568,2.1375 -3.75852,3.20625 -3.1033,1.49253 -5.20174,2.99924 -8.60935,1.19766 -0.776417,-0.41049 -1.461553,-0.98773 -2.101532,-1.58919 -0.725945,-0.68226 -2.203231,-3.212463 -1.97561,-2.242588 0.420505,1.791738 1.728841,3.249568 2.593261,4.874348 -1.561595,-2.85864 -3.213425,-5.956404 -2.830475,-9.333995 z" />
    <path
       style="fill:#000000;stroke-width:0.264583;filter:url(#filter932)"
       id="path13"
       d="m 164.66578,33.135673 c 0.0382,4.699431 -0.90577,9.36608 -0.84149,14.06997 0.0259,1.891448 0.2212,3.776776 0.3318,5.665165 0.44644,6.096125 0.97991,12.238136 2.34676,18.212401 1.439,6.289659 3.66947,12.312853 5.98715,18.315246 0.82194,1.756371 1.54731,3.56126 2.46583,5.269111 4.06861,7.564994 8.52813,15.290714 14.65107,21.435284 0.94465,0.94799 1.98447,1.79611 2.97671,2.69417 2.48982,2.12575 5.2494,3.74147 8.34436,4.79721 1.30308,0.4445 3.84108,1.06658 5.2093,1.41597 0,0 -4.09255,-8.46035 -4.09255,-8.46035 v 0 c -0.76535,-0.12286 -1.53916,-0.20128 -2.29603,-0.36858 -3.7141,-0.82099 -7.18588,-2.45675 -10.24971,-4.69819 -0.91434,-0.77847 -1.87251,-1.50823 -2.74303,-2.3354 -1.86038,-1.76773 -3.96541,-4.21192 -5.49798,-6.24362 -0.97507,-1.29263 -1.83383,-2.66953 -2.78727,-3.978186 -0.0253,-0.03476 0.001,0.166113 -0.018,0.127748 -0.92483,-1.826056 -1.80563,-3.674081 -2.70844,-5.51112 -1.9586,-4.917855 -2.88304,-6.908982 -4.38303,-12.006995 -2.23052,-7.580852 -3.50733,-15.45309 -3.35995,-23.365896 0.45168,-5.256895 0.86037,-10.852547 3.28768,-15.640516 z" />
    <path
       style="fill:#000000;stroke-width:0.264583;filter:url(#filter930)"
       id="path14"
       d="m 139.55062,20.876462 c 1.48664,1.438014 -0.77459,-0.737472 1.57182,1.455192 0.50258,0.469652 0.96886,0.978979 1.49199,1.425631 2.76304,2.359107 5.8505,4.286095 8.89906,6.24208 7.20307,4.579911 14.36281,9.247524 21.88298,13.29503 5.96992,3.038602 12.30744,5.206108 18.73409,7.034432 5.04994,1.159441 10.16742,2.167771 15.33636,2.599814 1.64313,0.04361 3.21662,-0.385964 4.79627,-0.76432 0,0 -5.07888,-9.265722 -5.07888,-9.265722 v 0 c -1.36476,0.535101 -2.73547,1.035418 -4.2077,1.190249 -5.09063,0.344787 -9.8171,-0.684527 -14.73369,-1.916961 -2.74336,-0.70689 -5.53888,-1.288442 -8.24781,-2.120943 -3.38554,-1.040431 -6.67295,-2.391716 -9.83897,-3.975761 -7.31223,-3.929531 -14.63642,-7.903427 -21.48342,-12.611131 -1.2785,-0.970402 -2.59207,-1.896257 -3.8355,-2.911206 -3.66723,-2.993387 -6.92518,-6.472476 -9.58586,-10.389498 z" />
    <path
       style="fill:#000000;stroke-width:0.264583;filter:url(#filter928)"
       id="path15"
       d="m 238.98359,29.45163 c -1.80207,-0.24476 -3.63977,-0.644207 -5.44944,-0.214672 -0.59054,0.140166 -1.15358,0.377844 -1.73036,0.566764 -3.86169,1.615977 -7.34433,4.023117 -10.22447,7.063084 -0.66782,0.704884 -1.2744,1.465373 -1.9116,2.198057 -1.36226,1.907329 -2.2115,2.871873 -3.12614,5.064898 -1.23407,2.95892 -1.98525,6.756651 -0.4947,9.801452 1.76636,3.608219 4.03475,6.948226 6.05213,10.422337 4.82402,5.335823 10.60747,9.680038 15.50014,14.957515 3.52796,3.805425 3.73078,4.423156 6.63867,8.648367 -0.28035,-0.441722 -1.01277,-1.819363 -0.84106,-1.325166 0.48808,1.404736 1.26721,2.69376 1.79911,4.082497 1.37404,3.587499 2.25752,7.416551 2.67401,11.233567 0.10778,0.98772 0.12057,1.9835 0.18085,2.97525 -0.0639,1.20032 0.0335,3.2617 -0.72775,4.39767 -2.50867,3.74349 -10.54994,2.54813 -14.10124,2.28195 -6.12422,-0.95778 -12.15347,-2.43007 -18.05789,-4.30993 -3.97043,-1.26411 -7.44805,-2.47582 -11.16593,-4.37667 -1.723,-0.88093 -3.3395,-1.95622 -5.00925,-2.934319 -5.87426,-4.404675 -3.12176,-2.07935 -8.28446,-6.943934 0,0 2.58895,6.149411 2.58895,6.149411 v 0 c 5.02934,4.207122 2.34665,2.143422 8.08293,6.145522 4.87664,2.67315 5.14019,3.04188 10.42308,5.01602 5.17262,1.93293 6.21223,1.97876 11.54521,3.3407 4.16585,1.06387 8.31445,2.19457 12.48486,3.24089 3.18594,0.7675 7.46244,1.98222 10.83784,2.15542 1.96442,0.1008 4.77958,0.0892 6.12327,-1.84913 0.72608,-1.04739 0.40005,-4.45233 0.36856,-5.42393 -0.49115,-3.82021 -1.07483,-7.58805 -2.15631,-11.29717 -1.95535,-6.706234 -5.26717,-12.641344 -9.10662,-18.498195 -2.73986,-3.790585 -3.30342,-4.843579 -6.61323,-8.275696 -1.25454,-1.300895 -2.63679,-2.472314 -3.94703,-3.717086 -4.20359,-3.993538 -8.4595,-7.981606 -11.93097,-12.654946 0.56318,1.056404 0.49306,3.129198 1.68953,3.169213 1.08223,0.03619 -0.72959,-2.062387 -0.83062,-3.14049 -0.37103,-3.959323 1.85878,-7.711834 4.12857,-10.720382 0.63217,-0.684139 1.22807,-1.403678 1.89653,-2.052413 2.86532,-2.780763 6.35819,-5.102431 10.30374,-5.907442 2.41767,-0.269285 5.0851,-0.33492 7.00109,1.428594 z" />
  </g>
  <g
     inkscape:groupmode="layer"
     id="layer2"
     inkscape:label="spray" />
</svg>
